<mxfile host="drawio-plugin" agent="Mozilla/5.0 (Macintosh; Intel Mac OS X 10_15_7) AppleWebKit/537.36 (KHTML, like Gecko) Chrome/122.0.0.0 Safari/537.36" modified="2024-12-18T16:23:57.794Z" etag="VYG2uyPYJQo-kTGNPUPt" version="22.1.22" type="embed">
  <diagram name="Page-1" id="oB8MHlwppOr-tE6rPpJF">
    <mxGraphModel dx="1089" dy="576" grid="1" gridSize="10" guides="1" tooltips="1" connect="1" arrows="1" fold="1" page="1" pageScale="1" pageWidth="1169" pageHeight="1654" math="0" shadow="0">
      <root>
        <mxCell id="0" />
        <mxCell id="1" parent="0" />
        <mxCell id="2" value="" style="swimlane;startSize=0;fillColor=#d5e8d4;strokeColor=#82b366;" parent="1" vertex="1">
          <mxGeometry x="340" y="320" width="450" height="430" as="geometry" />
        </mxCell>
        <mxCell id="3" value="Article Registry" style="shape=hexagon;perimeter=hexagonPerimeter2;whiteSpace=wrap;html=1;fixedSize=1;fillColor=#d5e8d4;strokeColor=#82b366;" parent="2" vertex="1">
          <mxGeometry x="166" y="180" width="120" height="80" as="geometry" />
        </mxCell>
        <mxCell id="13" value="" style="endArrow=none;html=1;rounded=0;fillColor=#d5e8d4;strokeColor=#82b366;startArrow=open;startFill=0;endFill=0;" parent="2" edge="1">
          <mxGeometry width="50" height="50" relative="1" as="geometry">
            <mxPoint x="237" y="270" as="sourcePoint" />
            <mxPoint x="237" y="310" as="targetPoint" />
          </mxGeometry>
        </mxCell>
        <mxCell id="14" value="retrieves&lt;br&gt;Article" style="edgeLabel;html=1;align=center;verticalAlign=middle;resizable=0;points=[];" parent="13" vertex="1" connectable="0">
          <mxGeometry x="0.0845" y="-2" relative="1" as="geometry">
            <mxPoint x="32" as="offset" />
          </mxGeometry>
        </mxCell>
        <mxCell id="15" value="ch.hslu.swda.stock API" style="shape=cube;whiteSpace=wrap;html=1;boundedLbl=1;backgroundOutline=1;darkOpacity=0.05;darkOpacity2=0.1;fillColor=#d5e8d4;strokeColor=#82b366;" parent="2" vertex="1">
          <mxGeometry x="157" y="40" width="120" height="80" as="geometry" />
        </mxCell>
        <mxCell id="16" value="" style="endArrow=open;html=1;rounded=0;fillColor=#d5e8d4;strokeColor=#82b366;endFill=0;" parent="2" edge="1">
          <mxGeometry width="50" height="50" relative="1" as="geometry">
            <mxPoint x="226" y="170" as="sourcePoint" />
            <mxPoint x="226" y="130" as="targetPoint" />
          </mxGeometry>
        </mxCell>
        <mxCell id="17" value="uses" style="edgeLabel;html=1;align=center;verticalAlign=middle;resizable=0;points=[];" parent="16" vertex="1" connectable="0">
          <mxGeometry x="-0.2501" relative="1" as="geometry">
            <mxPoint x="19" y="-8" as="offset" />
          </mxGeometry>
        </mxCell>
        <mxCell id="18" value="Order Service" style="text;html=1;align=left;verticalAlign=middle;resizable=0;points=[];autosize=1;strokeColor=none;fillColor=none;" parent="2" vertex="1">
          <mxGeometry x="20" width="100" height="30" as="geometry" />
        </mxCell>
        <mxCell id="23" value="" style="rounded=0;orthogonalLoop=1;jettySize=auto;html=1;dashed=1;endArrow=open;endFill=0;fillColor=#d5e8d4;strokeColor=#82b366;entryX=0;entryY=0.5;entryDx=0;entryDy=0;" parent="2" edge="1">
          <mxGeometry relative="1" as="geometry">
            <mxPoint x="42.75" y="200" as="sourcePoint" />
            <mxPoint x="147.25" y="200" as="targetPoint" />
          </mxGeometry>
        </mxCell>
        <mxCell id="24" value="articles.check-validity" style="edgeLabel;html=1;align=center;verticalAlign=middle;resizable=0;points=[];" parent="23" connectable="0" vertex="1">
          <mxGeometry x="0.066" y="1" relative="1" as="geometry">
            <mxPoint x="-4" y="-9" as="offset" />
          </mxGeometry>
        </mxCell>
        <mxCell id="25" value="" style="rounded=0;orthogonalLoop=1;jettySize=auto;html=1;dashed=1;endArrow=none;endFill=0;fillColor=#d5e8d4;strokeColor=#82b366;entryX=0;entryY=0.5;entryDx=0;entryDy=0;startArrow=open;startFill=0;" parent="2" edge="1">
          <mxGeometry relative="1" as="geometry">
            <mxPoint x="42.75" y="230" as="sourcePoint" />
            <mxPoint x="147.25" y="230" as="targetPoint" />
          </mxGeometry>
        </mxCell>
        <mxCell id="26" value="order.receive-validity" style="edgeLabel;html=1;align=center;verticalAlign=middle;resizable=0;points=[];" parent="25" connectable="0" vertex="1">
          <mxGeometry x="0.066" y="1" relative="1" as="geometry">
            <mxPoint x="-4" y="-9" as="offset" />
          </mxGeometry>
        </mxCell>
        <mxCell id="31" value="" style="rounded=0;orthogonalLoop=1;jettySize=auto;html=1;dashed=1;endArrow=open;endFill=0;fillColor=#d5e8d4;strokeColor=#82b366;entryX=0;entryY=0.5;entryDx=0;entryDy=0;startArrow=none;startFill=0;" parent="2" edge="1">
          <mxGeometry relative="1" as="geometry">
            <mxPoint x="310" y="219.5" as="sourcePoint" />
            <mxPoint x="414.5" y="219.5" as="targetPoint" />
          </mxGeometry>
        </mxCell>
        <mxCell id="32" value="logs.new" style="edgeLabel;html=1;align=center;verticalAlign=middle;resizable=0;points=[];" parent="31" connectable="0" vertex="1">
          <mxGeometry x="0.066" y="1" relative="1" as="geometry">
            <mxPoint x="-4" y="-9" as="offset" />
          </mxGeometry>
        </mxCell>
        <mxCell id="62" value="Prices" style="shape=table;startSize=30;container=1;collapsible=0;childLayout=tableLayout;strokeColor=#82b366;fontSize=16;fillColor=#d5e8d4;" vertex="1" parent="2">
          <mxGeometry x="100" y="330" width="120" height="80" as="geometry" />
        </mxCell>
        <mxCell id="63" value="" style="shape=tableRow;horizontal=0;startSize=0;swimlaneHead=0;swimlaneBody=0;strokeColor=inherit;top=0;left=0;bottom=0;right=0;collapsible=0;dropTarget=0;fillColor=none;points=[[0,0.5],[1,0.5]];portConstraint=eastwest;fontSize=16;" vertex="1" parent="62">
          <mxGeometry y="30" width="120" height="17" as="geometry" />
        </mxCell>
        <mxCell id="64" value="" style="shape=partialRectangle;html=1;whiteSpace=wrap;connectable=0;strokeColor=inherit;overflow=hidden;fillColor=none;top=0;left=0;bottom=0;right=0;pointerEvents=1;fontSize=16;" vertex="1" parent="63">
          <mxGeometry width="40" height="17" as="geometry">
            <mxRectangle width="40" height="17" as="alternateBounds" />
          </mxGeometry>
        </mxCell>
        <mxCell id="65" value="" style="shape=partialRectangle;html=1;whiteSpace=wrap;connectable=0;strokeColor=inherit;overflow=hidden;fillColor=none;top=0;left=0;bottom=0;right=0;pointerEvents=1;fontSize=16;" vertex="1" parent="63">
          <mxGeometry x="40" width="40" height="17" as="geometry">
            <mxRectangle width="40" height="17" as="alternateBounds" />
          </mxGeometry>
        </mxCell>
        <mxCell id="66" value="" style="shape=partialRectangle;html=1;whiteSpace=wrap;connectable=0;strokeColor=inherit;overflow=hidden;fillColor=none;top=0;left=0;bottom=0;right=0;pointerEvents=1;fontSize=16;" vertex="1" parent="63">
          <mxGeometry x="80" width="40" height="17" as="geometry">
            <mxRectangle width="40" height="17" as="alternateBounds" />
          </mxGeometry>
        </mxCell>
        <mxCell id="67" value="" style="shape=tableRow;horizontal=0;startSize=0;swimlaneHead=0;swimlaneBody=0;strokeColor=inherit;top=0;left=0;bottom=0;right=0;collapsible=0;dropTarget=0;fillColor=none;points=[[0,0.5],[1,0.5]];portConstraint=eastwest;fontSize=16;" vertex="1" parent="62">
          <mxGeometry y="47" width="120" height="16" as="geometry" />
        </mxCell>
        <mxCell id="68" value="" style="shape=partialRectangle;html=1;whiteSpace=wrap;connectable=0;strokeColor=inherit;overflow=hidden;fillColor=none;top=0;left=0;bottom=0;right=0;pointerEvents=1;fontSize=16;" vertex="1" parent="67">
          <mxGeometry width="40" height="16" as="geometry">
            <mxRectangle width="40" height="16" as="alternateBounds" />
          </mxGeometry>
        </mxCell>
        <mxCell id="69" value="" style="shape=partialRectangle;html=1;whiteSpace=wrap;connectable=0;strokeColor=inherit;overflow=hidden;fillColor=none;top=0;left=0;bottom=0;right=0;pointerEvents=1;fontSize=16;" vertex="1" parent="67">
          <mxGeometry x="40" width="40" height="16" as="geometry">
            <mxRectangle width="40" height="16" as="alternateBounds" />
          </mxGeometry>
        </mxCell>
        <mxCell id="70" value="" style="shape=partialRectangle;html=1;whiteSpace=wrap;connectable=0;strokeColor=inherit;overflow=hidden;fillColor=none;top=0;left=0;bottom=0;right=0;pointerEvents=1;fontSize=16;" vertex="1" parent="67">
          <mxGeometry x="80" width="40" height="16" as="geometry">
            <mxRectangle width="40" height="16" as="alternateBounds" />
          </mxGeometry>
        </mxCell>
        <mxCell id="71" value="" style="shape=tableRow;horizontal=0;startSize=0;swimlaneHead=0;swimlaneBody=0;strokeColor=inherit;top=0;left=0;bottom=0;right=0;collapsible=0;dropTarget=0;fillColor=none;points=[[0,0.5],[1,0.5]];portConstraint=eastwest;fontSize=16;" vertex="1" parent="62">
          <mxGeometry y="63" width="120" height="17" as="geometry" />
        </mxCell>
        <mxCell id="72" value="" style="shape=partialRectangle;html=1;whiteSpace=wrap;connectable=0;strokeColor=inherit;overflow=hidden;fillColor=none;top=0;left=0;bottom=0;right=0;pointerEvents=1;fontSize=16;" vertex="1" parent="71">
          <mxGeometry width="40" height="17" as="geometry">
            <mxRectangle width="40" height="17" as="alternateBounds" />
          </mxGeometry>
        </mxCell>
        <mxCell id="73" value="" style="shape=partialRectangle;html=1;whiteSpace=wrap;connectable=0;strokeColor=inherit;overflow=hidden;fillColor=none;top=0;left=0;bottom=0;right=0;pointerEvents=1;fontSize=16;" vertex="1" parent="71">
          <mxGeometry x="40" width="40" height="17" as="geometry">
            <mxRectangle width="40" height="17" as="alternateBounds" />
          </mxGeometry>
        </mxCell>
        <mxCell id="74" value="" style="shape=partialRectangle;html=1;whiteSpace=wrap;connectable=0;strokeColor=inherit;overflow=hidden;fillColor=none;top=0;left=0;bottom=0;right=0;pointerEvents=1;fontSize=16;" vertex="1" parent="71">
          <mxGeometry x="80" width="40" height="17" as="geometry">
            <mxRectangle width="40" height="17" as="alternateBounds" />
          </mxGeometry>
        </mxCell>
        <mxCell id="49" value="Articles" style="shape=table;startSize=30;container=1;collapsible=0;childLayout=tableLayout;strokeColor=#82b366;fontSize=16;fillColor=#d5e8d4;" vertex="1" parent="2">
          <mxGeometry x="245" y="330" width="120" height="80" as="geometry" />
        </mxCell>
        <mxCell id="50" value="" style="shape=tableRow;horizontal=0;startSize=0;swimlaneHead=0;swimlaneBody=0;strokeColor=inherit;top=0;left=0;bottom=0;right=0;collapsible=0;dropTarget=0;fillColor=none;points=[[0,0.5],[1,0.5]];portConstraint=eastwest;fontSize=16;" vertex="1" parent="49">
          <mxGeometry y="30" width="120" height="17" as="geometry" />
        </mxCell>
        <mxCell id="51" value="" style="shape=partialRectangle;html=1;whiteSpace=wrap;connectable=0;strokeColor=inherit;overflow=hidden;fillColor=none;top=0;left=0;bottom=0;right=0;pointerEvents=1;fontSize=16;" vertex="1" parent="50">
          <mxGeometry width="40" height="17" as="geometry">
            <mxRectangle width="40" height="17" as="alternateBounds" />
          </mxGeometry>
        </mxCell>
        <mxCell id="52" value="" style="shape=partialRectangle;html=1;whiteSpace=wrap;connectable=0;strokeColor=inherit;overflow=hidden;fillColor=none;top=0;left=0;bottom=0;right=0;pointerEvents=1;fontSize=16;" vertex="1" parent="50">
          <mxGeometry x="40" width="40" height="17" as="geometry">
            <mxRectangle width="40" height="17" as="alternateBounds" />
          </mxGeometry>
        </mxCell>
        <mxCell id="53" value="" style="shape=partialRectangle;html=1;whiteSpace=wrap;connectable=0;strokeColor=inherit;overflow=hidden;fillColor=none;top=0;left=0;bottom=0;right=0;pointerEvents=1;fontSize=16;" vertex="1" parent="50">
          <mxGeometry x="80" width="40" height="17" as="geometry">
            <mxRectangle width="40" height="17" as="alternateBounds" />
          </mxGeometry>
        </mxCell>
        <mxCell id="54" value="" style="shape=tableRow;horizontal=0;startSize=0;swimlaneHead=0;swimlaneBody=0;strokeColor=inherit;top=0;left=0;bottom=0;right=0;collapsible=0;dropTarget=0;fillColor=none;points=[[0,0.5],[1,0.5]];portConstraint=eastwest;fontSize=16;" vertex="1" parent="49">
          <mxGeometry y="47" width="120" height="16" as="geometry" />
        </mxCell>
        <mxCell id="55" value="" style="shape=partialRectangle;html=1;whiteSpace=wrap;connectable=0;strokeColor=inherit;overflow=hidden;fillColor=none;top=0;left=0;bottom=0;right=0;pointerEvents=1;fontSize=16;" vertex="1" parent="54">
          <mxGeometry width="40" height="16" as="geometry">
            <mxRectangle width="40" height="16" as="alternateBounds" />
          </mxGeometry>
        </mxCell>
        <mxCell id="56" value="" style="shape=partialRectangle;html=1;whiteSpace=wrap;connectable=0;strokeColor=inherit;overflow=hidden;fillColor=none;top=0;left=0;bottom=0;right=0;pointerEvents=1;fontSize=16;" vertex="1" parent="54">
          <mxGeometry x="40" width="40" height="16" as="geometry">
            <mxRectangle width="40" height="16" as="alternateBounds" />
          </mxGeometry>
        </mxCell>
        <mxCell id="57" value="" style="shape=partialRectangle;html=1;whiteSpace=wrap;connectable=0;strokeColor=inherit;overflow=hidden;fillColor=none;top=0;left=0;bottom=0;right=0;pointerEvents=1;fontSize=16;" vertex="1" parent="54">
          <mxGeometry x="80" width="40" height="16" as="geometry">
            <mxRectangle width="40" height="16" as="alternateBounds" />
          </mxGeometry>
        </mxCell>
        <mxCell id="58" value="" style="shape=tableRow;horizontal=0;startSize=0;swimlaneHead=0;swimlaneBody=0;strokeColor=inherit;top=0;left=0;bottom=0;right=0;collapsible=0;dropTarget=0;fillColor=none;points=[[0,0.5],[1,0.5]];portConstraint=eastwest;fontSize=16;" vertex="1" parent="49">
          <mxGeometry y="63" width="120" height="17" as="geometry" />
        </mxCell>
        <mxCell id="59" value="" style="shape=partialRectangle;html=1;whiteSpace=wrap;connectable=0;strokeColor=inherit;overflow=hidden;fillColor=none;top=0;left=0;bottom=0;right=0;pointerEvents=1;fontSize=16;" vertex="1" parent="58">
          <mxGeometry width="40" height="17" as="geometry">
            <mxRectangle width="40" height="17" as="alternateBounds" />
          </mxGeometry>
        </mxCell>
        <mxCell id="60" value="" style="shape=partialRectangle;html=1;whiteSpace=wrap;connectable=0;strokeColor=inherit;overflow=hidden;fillColor=none;top=0;left=0;bottom=0;right=0;pointerEvents=1;fontSize=16;" vertex="1" parent="58">
          <mxGeometry x="40" width="40" height="17" as="geometry">
            <mxRectangle width="40" height="17" as="alternateBounds" />
          </mxGeometry>
        </mxCell>
        <mxCell id="61" value="" style="shape=partialRectangle;html=1;whiteSpace=wrap;connectable=0;strokeColor=inherit;overflow=hidden;fillColor=none;top=0;left=0;bottom=0;right=0;pointerEvents=1;fontSize=16;" vertex="1" parent="58">
          <mxGeometry x="80" width="40" height="17" as="geometry">
            <mxRectangle width="40" height="17" as="alternateBounds" />
          </mxGeometry>
        </mxCell>
        <mxCell id="47" value="" style="endArrow=none;html=1;rounded=0;fillColor=#d5e8d4;strokeColor=#82b366;startArrow=open;startFill=0;endFill=0;" edge="1" parent="1">
          <mxGeometry width="50" height="50" relative="1" as="geometry">
            <mxPoint x="557" y="590" as="sourcePoint" />
            <mxPoint x="557" y="630" as="targetPoint" />
          </mxGeometry>
        </mxCell>
        <mxCell id="48" value="retrieves&lt;br&gt;Price" style="edgeLabel;html=1;align=center;verticalAlign=middle;resizable=0;points=[];" vertex="1" connectable="0" parent="47">
          <mxGeometry x="-0.0534" y="-1" relative="1" as="geometry">
            <mxPoint x="-30" as="offset" />
          </mxGeometry>
        </mxCell>
      </root>
    </mxGraphModel>
  </diagram>
</mxfile>
